{
  "accessors": [
    {
      "bufferView": 3,
      "componentType": 5126,
      "count": 8630,
      "max": [
        101.8009033203125,
        33.52598571777344,
        105.41485595703125
      ],
      "min": [
        -100.47614288330078,
        -6.063903331756592,
        -119.78044891357422
      ],
      "type": "VEC3"
    },
    {
      "bufferView": 3,
      "byteOffset": 103560,
      "componentType": 5126,
      "count": 8630,
      "max": [
        0.9999999403953552,
        0.9999983906745911,
        0.999965250492096
      ],
      "min": [
        -0.9999999403953552,
        -0.9999904036521912,
        -0.9999886751174927
      ],
      "type": "VEC3"
    },
    {
      "bufferView": 4,
      "componentType": 5126,
      "count": 8630,
      "max": [
        0.9999999403953552,
        0.9999933838844299,
        0.9999983906745911,
        1.0
      ],
      "min": [
        -0.9999999403953552,
        -0.9999964833259583,
        -0.9999365210533142,
        1.0
      ],
      "type": "VEC4"
    },
    {
      "bufferView": 2,
      "componentType": 5126,
      "count": 8630,
      "max": [
        0.9950352311134338,
        0.8314218521118164
      ],
      "min": [
        0.004943728446960449,
        0.004936426877975464
      ],
      "type": "VEC2"
    },
    {
      "bufferView": 1,
      "componentType": 5125,
      "count": 43350,
      "type": "SCALAR"
    },
    {
      "bufferView": 3,
      "byteOffset": 207120,
      "componentType": 5126,
      "count": 875,
      "max": [
        0.35995540022850037,
        0.3825880289077759,
        4.807040214538574
      ],
      "min": [
        -0.3599552810192108,
        -0.23711839318275452,
        -3.8441832065582275
      ],
      "type": "VEC3"
    },
    {
      "bufferView": 3,
      "byteOffset": 217620,
      "componentType": 5126,
      "count": 875,
      "max": [
        1.0,
        1.0,
        0.9999992847442627
      ],
      "min": [
        -1.0,
        -1.0,
        -1.0
      ],
      "type": "VEC3"
    },
    {
      "bufferView": 4,
      "byteOffset": 138080,
      "componentType": 5126,
      "count": 875,
      "max": [
        0.999964714050293,
        0.9986360669136047,
        0.99662846326828,
        1.0
      ],
      "min": [
        -0.9999998211860657,
        -0.9985994100570679,
        -0.9999999403953552,
        1.0
      ],
      "type": "VEC4"
    },
    {
      "bufferView": 2,
      "byteOffset": 69040,
      "componentType": 5126,
      "count": 875,
      "max": [
        0.604099690914154,
        0.6723272800445557
      ],
      "min": [
        0.22639679908752441,
        0.00494500994682312
      ],
      "type": "VEC2"
    },
    {
      "bufferView": 1,
      "byteOffset": 173400,
      "componentType": 5125,
      "count": 4188,
      "type": "SCALAR"
    },
    {
      "bufferView": 3,
      "byteOffset": 228120,
      "componentType": 5126,
      "count": 875,
      "max": [
        0.35995540022850037,
        0.3825880289077759,
        4.807040214538574
      ],
      "min": [
        -0.3599552810192108,
        -0.23711839318275452,
        -3.8441832065582275
      ],
      "type": "VEC3"
    },
    {
      "bufferView": 3,
      "byteOffset": 238620,
      "componentType": 5126,
      "count": 875,
      "max": [
        1.0,
        1.0,
        0.9999992847442627
      ],
      "min": [
        -1.0,
        -1.0,
        -1.0
      ],
      "type": "VEC3"
    },
    {
      "bufferView": 4,
      "byteOffset": 152080,
      "componentType": 5126,
      "count": 875,
      "max": [
        0.999964714050293,
        0.9986360669136047,
        0.99662846326828,
        1.0
      ],
      "min": [
        -0.9999998211860657,
        -0.9985994100570679,
        -0.9999999403953552,
        1.0
      ],
      "type": "VEC4"
    },
    {
      "bufferView": 2,
      "byteOffset": 76040,
      "componentType": 5126,
      "count": 875,
      "max": [
        0.604099690914154,
        0.6723272800445557
      ],
      "min": [
        0.22639679908752441,
        0.00494500994682312
      ],
      "type": "VEC2"
    },
    {
      "bufferView": 1,
      "byteOffset": 190152,
      "componentType": 5125,
      "count": 4188,
      "type": "SCALAR"
    },
    {
      "bufferView": 3,
      "byteOffset": 249120,
      "componentType": 5126,
      "count": 875,
      "max": [
        0.35995540022850037,
        0.3825880289077759,
        4.807040214538574
      ],
      "min": [
        -0.3599552810192108,
        -0.23711839318275452,
        -3.8441832065582275
      ],
      "type": "VEC3"
    },
    {
      "bufferView": 3,
      "byteOffset": 259620,
      "componentType": 5126,
      "count": 875,
      "max": [
        1.0,
        1.0,
        0.9999992847442627
      ],
      "min": [
        -1.0,
        -1.0,
        -1.0
      ],
      "type": "VEC3"
    },
    {
      "bufferView": 4,
      "byteOffset": 166080,
      "componentType": 5126,
      "count": 875,
      "max": [
        0.999964714050293,
        0.9986360669136047,
        0.99662846326828,
        1.0
      ],
      "min": [
        -0.9999998211860657,
        -0.9985994100570679,
        -0.9999999403953552,
        1.0
      ],
      "type": "VEC4"
    },
    {
      "bufferView": 2,
      "byteOffset": 83040,
      "componentType": 5126,
      "count": 875,
      "max": [
        0.604099690914154,
        0.6723272800445557
      ],
      "min": [
        0.22639679908752441,
        0.00494500994682312
      ],
      "type": "VEC2"
    },
    {
      "bufferView": 1,
      "byteOffset": 206904,
      "componentType": 5125,
      "count": 4188,
      "type": "SCALAR"
    },
    {
      "bufferView": 5,
      "componentType": 5126,
      "count": 6,
      "max": [
        1.0,
        2.3116996615150974e-15,
        3.65925920675636e-08,
        0.0,
        0.0,
        1.0,
        0.1262008100748062,
        0.0,
        2.082528993696542e-08,
        0.15309345722198486,
        1.0,
        0.0,
        0.0,
        0.0,
        4.692096710205078,
        1.0
      ],
      "min": [
        0.15348047018051147,
        0.0,
        0.0,
        0.0,
        -3.0088632030356166e-08,
        -0.08734756708145142,
        -0.15309345722198486,
        0.0,
        0.0,
        -0.1262008398771286,
        -0.08734755218029022,
        0.0,
        -0.07422271370887756,
        -1.2726686000823975,
        -3.5159778594970703,
        1.0
      ],
      "type": "MAT4"
    },
    {
      "bufferView": 0,
      "componentType": 5123,
      "count": 8630,
      "type": "VEC4"
    },
    {
      "bufferView": 4,
      "byteOffset": 180080,
      "componentType": 5126,
      "count": 8630,
      "max": [
        1.0,
        0.20000000298023224,
        0.0,
        0.0
      ],
      "min": [
        0.800000011920929,
        0.0,
        0.0,
        0.0
      ],
      "type": "VEC4"
    }
  ],
  "asset": {
    "extras": {
      "author": "Green Eyesman (https://sketchfab.com/greeneyesman)",
      "license": "CC-BY-4.0 (http://creativecommons.org/licenses/by/4.0/)",
      "source": "https://sketchfab.com/3d-models/crossbow-f57964f72c824427b6dc2af494a163ba",
      "title": "Crossbow"
    },
    "generator": "Sketchfab-10.50.0",
    "version": "2.0"
  },
  "bufferViews": [
    {
      "buffer": 0,
      "byteLength": 69040,
      "byteStride": 8,
      "name": "shortBufferViews",
      "target": 34962
    },
    {
      "buffer": 0,
      "byteLength": 223656,
      "byteOffset": 69040,
      "name": "floatBufferViews",
      "target": 34963
    },
    {
      "buffer": 0,
      "byteLength": 90040,
      "byteOffset": 292696,
      "byteStride": 8,
      "name": "floatBufferViews",
      "target": 34962
    },
    {
      "buffer": 0,
      "byteLength": 270120,
      "byteOffset": 382736,
      "byteStride": 12,
      "name": "floatBufferViews",
      "target": 34962
    },
    {
      "buffer": 0,
      "byteLength": 318160,
      "byteOffset": 652856,
      "byteStride": 16,
      "name": "floatBufferViews",
      "target": 34962
    },
    {
      "buffer": 0,
      "byteLength": 384,
      "byteOffset": 971016,
      "byteStride": 64,
      "name": "floatBufferViews"
    }
  ],
  "buffers": [
    {
      "byteLength": 971400,
      "uri": "scene.bin"
    }
  ],
  "images": [
    {
      "uri": "textures/Material_baseColor.png"
    },
    {
      "uri": "textures/Material_metallicRoughness.png"
    },
    {
      "uri": "textures/Material_emissive.png"
    },
    {
      "uri": "textures/Material_normal.png"
    }
  ],
  "materials": [
    {
      "doubleSided": true,
      "emissiveFactor": [
        1.0,
        1.0,
        1.0
      ],
      "emissiveTexture": {
        "index": 2
      },
      "name": "Material",
      "normalTexture": {
        "index": 3
      },
      "pbrMetallicRoughness": {
        "baseColorTexture": {
          "index": 0
        },
        "metallicFactor": 0.8,
        "metallicRoughnessTexture": {
          "index": 1
        },
        "roughnessFactor": 0.9
      }
    }
  ],
  "meshes": [
    {
      "name": "Crossbow_Material_0",
      "primitives": [
        {
          "attributes": {
            "JOINTS_0": 21,
            "NORMAL": 1,
            "POSITION": 0,
            "TANGENT": 2,
            "TEXCOORD_0": 3,
            "WEIGHTS_0": 22
          },
          "indices": 4,
          "material": 0,
          "mode": 4
        }
      ]
    },
    {
      "name": "Bolt_1_Material_0",
      "primitives": [
        {
          "attributes": {
            "NORMAL": 6,
            "POSITION": 5,
            "TANGENT": 7,
            "TEXCOORD_0": 8
          },
          "indices": 9,
          "material": 0,
          "mode": 4
        }
      ]
    },
    {
      "name": "Bolt_1.001_Material_0",
      "primitives": [
        {
          "attributes": {
            "NORMAL": 11,
            "POSITION": 10,
            "TANGENT": 12,
            "TEXCOORD_0": 13
          },
          "indices": 14,
          "material": 0,
          "mode": 4
        }
      ]
    },
    {
      "name": "Bolt_1.002_Material_0",
      "primitives": [
        {
          "attributes": {
            "NORMAL": 16,
            "POSITION": 15,
            "TANGENT": 17,
            "TEXCOORD_0": 18
          },
          "indices": 19,
          "material": 0,
          "mode": 4
        }
      ]
    }
  ],
  "nodes": [
    {
      "children": [
        1
      ],
      "matrix": [
        1.0,
        0.0,
        0.0,
        0.0,
        0.0,
        2.220446049250313e-16,
        -1.0,
        0.0,
        0.0,
        1.0,
        2.220446049250313e-16,
        0.0,
        0.0,
        0.0,
        0.0,
        1.0
      ],
      "name": "Sketchfab_model"
    },
    {
      "children": [
        2
      ],
      "matrix": [
        1.0,
        0.0,
        0.0,
        0.0,
        0.0,
        0.0,
        1.0,
        0.0,
        0.0,
        -1.0,
        0.0,
        0.0,
        0.0,
        0.0,
        0.0,
        1.0
      ],
      "name": "EtherialCrossbow_forSketchfab.fbx"
    },
    {
      "children": [
        3,
        13,
        15,
        17
      ],
      "name": "RootNode"
    },
    {
      "children": [
        4
      ],
      "matrix": [
        6.515487194061279,
        0.0,
        0.0,
        0.0,
        0.0,
        6.4990574826963,
        0.4624056649016953,
        0.0,
        0.0,
        -0.4624056649016953,
        6.4990574826963,
        0.0,
        0.48359715938568115,
        3.960599660873413,
        6.5623579025268555,
        1.0
      ],
      "name": "Armature"
    },
    {
      "children": [
        5,
        7,
        6
      ],
      "name": "Object_4"
    },
    {
      "children": [
        8
      ],
      "name": "_rootJoint"
    },
    {
      "matrix": [
        6.5154868057079796,
        0.0,
        0.0,
        0.0,
        0.0,
        0.462405512367053,
        -6.499058543523619,
        0.0,
        0.0,
        6.499058558291828,
        0.4624055134178054,
        0.0,
        0.6024611819997325,
        16.933540418327553,
        12.433107830048314,
        1.0
      ],
      "name": "Object_6"
    },
    {
      "mesh": 0,
      "name": "Object_7",
      "skin": 0
    },
    {
      "children": [
        9,
        11
      ],
      "name": "Bone_bow_00",
      "rotation": [
        0.7071068286895752,
        0.0,
        0.0,
        0.7071067094802856
      ]
    },
    {
      "children": [
        10
      ],
      "name": "Bone_Sender_01",
      "rotation": [
        5.629487631608754e-08,
        0.0,
        0.0,
        1.0
      ],
      "translation": [
        0.0,
        -7.113191604614258,
        -4.014273643493652
      ]
    },
    {
      "name": "Bone_Sender_end_03",
      "translation": [
        0.0,
        4.235173225402832,
        0.0
      ]
    },
    {
      "children": [
        12
      ],
      "name": "Bone_trigger_02",
      "rotation": [
        0.943344235420227,
        3.955555172296954e-08,
        1.1245543163340699e-07,
        0.331815630197525
      ],
      "scale": [
        1.0,
        1.0,
        1.000000238418579
      ],
      "translation": [
        0.0,
        -4.155054092407227,
        -1.2671931982040405
      ]
    },
    {
      "name": "Bone_trigger_end_04",
      "rotation": [
        8.326672684688674e-17,
        1.3234889800848443e-23,
        -1.3234889800848443e-23,
        1.0
      ],
      "translation": [
        0.0,
        4.991942405700684,
        8.881784197001252e-16
      ]
    },
    {
      "children": [
        14
      ],
      "matrix": [
        6.515487194061279,
        0.0,
        0.0,
        0.0,
        0.0,
        6.515487194061273,
        2.848010369122021e-07,
        0.0,
        0.0,
        -2.848010369122021e-07,
        6.515487194061273,
        0.0,
        33.998634338378906,
        0.959506630897522,
        -23.109731674194336,
        1.0
      ],
      "name": "Bolt_1"
    },
    {
      "mesh": 1,
      "name": "Bolt_1_Material_0"
    },
    {
      "children": [
        16
      ],
      "matrix": [
        5.631463327386884,
        1.4802379850819074,
        2.9235406061475926,
        0.0,
        -1.1035048117884507,
        6.329994727845664,
        -1.0793596489504116,
        0.0,
        -3.085526097545265,
        0.4377620688722063,
        5.721841176439655,
        0.0,
        38.54640579223633,
        2.840012311935425,
        -23.109731674194336,
        1.0
      ],
      "name": "Bolt_1.001"
    },
    {
      "mesh": 2,
      "name": "Bolt_1.001_Material_0"
    },
    {
      "children": [
        18
      ],
      "matrix": [
        -5.667225627385971,
        -1.4051784239936857e-07,
        3.2146727439388965,
        0.0,
        -2.928215560265448e-14,
        6.515487194061273,
        2.8480100765088194e-07,
        0.0,
        -3.2146727439388996,
        2.4772230027603033e-07,
        -5.667225627385965,
        0.0,
        -47.60362243652344,
        0.959506630897522,
        -48.20899200439453,
        1.0
      ],
      "name": "Bolt_1.002"
    },
    {
      "mesh": 3,
      "name": "Bolt_1.002_Material_0"
    }
  ],
  "samplers": [
    {
      "magFilter": 9729,
      "minFilter": 9987,
      "wrapS": 10497,
      "wrapT": 10497
    }
  ],
  "scene": 0,
  "scenes": [
    {
      "name": "Sketchfab_Scene",
      "nodes": [
        0
      ]
    }
  ],
  "skins": [
    {
      "inverseBindMatrices": 20,
      "joints": [
        5,
        8,
        9,
        10,
        11,
        12
      ],
      "skeleton": 5
    }
  ],
  "textures": [
    {
      "sampler": 0,
      "source": 0
    },
    {
      "sampler": 0,
      "source": 1
    },
    {
      "sampler": 0,
      "source": 2
    },
    {
      "sampler": 0,
      "source": 3
    }
  ]
}
